<svg width="44" height="48" viewBox="0 0 44 48" fill="none" xmlns="http://www.w3.org/2000/svg">
<path fill-rule="evenodd" clip-rule="evenodd" d="M26.4734 22.124C27.3089 22.9478 27.3089 24.2832 26.4734 25.107L4.66082 46.6127C3.82529 47.4364 2.47086 47.4364 1.63533 46.6127L0.626649 45.6183C-0.208883 44.7945 -0.208883 43.4589 0.626649 42.6352L19.9178 23.6155L0.626649 4.59573C-0.208883 3.77195 -0.208883 2.43658 0.626649 1.6128L1.63533 0.618304C2.47086 -0.205476 3.82529 -0.205476 4.66082 0.618304L26.4734 22.124Z" fill="#1A1A1A" fill-opacity="0.6"/>
<path fill-rule="evenodd" clip-rule="evenodd" d="M42.7283 22.1253C43.5637 22.949 43.5637 24.2843 42.7283 25.108L20.9183 46.6117C20.0829 47.4354 18.7286 47.4354 17.8932 46.6117L16.8846 45.6174C16.0492 44.7938 16.0492 43.4583 16.8846 42.6346L36.1734 23.6166L16.8846 4.59854C16.0492 3.77483 16.0492 2.43958 16.8846 1.61587L17.8932 0.621464C18.7286 -0.202242 20.0829 -0.202242 20.9183 0.621464L42.7283 22.1253Z" fill="#1A1A1A" fill-opacity="0.6"/>
</svg>
