<svg width="230" height="11" viewBox="0 0 230 11" fill="none" xmlns="http://www.w3.org/2000/svg">
<path fill-rule="evenodd" clip-rule="evenodd" d="M211.003 0.0200231C210.748 0.180186 193.918 0.446637 190.405 0.346171C190.157 0.339134 186 0.366556 181.167 0.407324C173.796 0.469448 172.334 0.53958 172.098 0.841463C171.875 1.12636 171.815 1.13194 171.812 0.868399C171.808 0.618934 171.707 0.602433 171.409 0.802636C171.166 0.965954 170.669 0.997986 170.134 0.884901C169.652 0.782979 167.954 0.703384 166.362 0.707752C164.769 0.712363 163.536 0.624029 163.622 0.511673C163.708 0.399316 162.918 0.370196 161.868 0.447123C157.143 0.792929 139.906 0.963526 139.32 0.670379C139.154 0.587629 139.109 0.638105 139.22 0.78298C139.331 0.927854 139.284 1.11495 139.116 1.19892C138.948 1.28264 138.811 1.23556 138.811 1.09433C138.811 0.953092 138.668 0.837338 138.494 0.837338C138.319 0.837338 138.259 0.94654 138.361 1.08001C138.463 1.21348 138.412 1.32268 138.247 1.32268C138.082 1.32268 137.863 1.21348 137.761 1.08001C137.659 0.94654 137.415 0.839036 137.219 0.840978C137.004 0.843404 137.041 0.938774 137.311 1.08001C137.828 1.34986 137.628 1.38626 135.962 1.3268C135.302 1.30327 134.634 1.18363 134.477 1.06059C134.047 0.72401 123.813 0.771089 123.813 1.10962C123.813 1.31006 123.707 1.31055 123.411 1.1118C123.189 0.963283 122.947 0.890484 122.874 0.950423C122.8 1.01012 121.295 1.07613 119.53 1.097C117.508 1.12102 116.389 1.22367 116.504 1.37437C116.604 1.50614 116.4 1.48988 116.05 1.33845C115.7 1.18678 115.415 1.14868 115.415 1.25352C115.415 1.45979 111.951 1.38529 111.215 1.16325C110.967 1.0885 107.66 1.06545 103.866 1.11228C100.071 1.15888 93.6846 1.19795 89.6738 1.19916C85.6627 1.20037 82.6931 1.27245 83.0746 1.35908C83.4661 1.44814 82.8137 1.52749 81.5757 1.54108C80.2982 1.55516 79.4556 1.66023 79.5567 1.79249C79.6631 1.93154 79.3812 1.93858 78.8287 1.81021C78.3328 1.69518 77.8562 1.69397 77.7695 1.80729C77.6828 1.92086 77.1411 1.97838 76.5654 1.93494C75.9901 1.89174 75.5192 1.93372 75.5192 2.02837C75.5192 2.12325 75.3164 2.41251 75.0686 2.67169C74.6928 3.06433 74.6484 3.07209 74.8008 2.71804C74.9225 2.4346 74.8314 2.29336 74.5263 2.29336C74.2749 2.29336 74.0131 2.15698 73.9444 1.99002C73.6777 1.34234 35.6397 1.38505 29.7031 2.03977C28.7526 2.14461 26.8037 2.24993 25.372 2.27371C23.9403 2.29773 22.388 2.40087 21.9224 2.50303C21.4569 2.6052 20.6374 2.66999 20.101 2.64694C19.5647 2.62412 19.1262 2.69887 19.1262 2.81341C19.1262 2.9277 18.9687 3.02138 18.7761 3.02138C18.5838 3.02138 18.5154 2.9493 18.6243 2.86121C18.7332 2.77312 18.5592 2.55181 18.238 2.36981C17.7766 2.10821 16.623 2.06719 12.7655 2.17494C10.0772 2.24993 7.09586 2.39868 6.14047 2.5057C4.69705 2.66732 4.3581 2.63504 4.13582 2.31472C3.89705 1.97061 3.84636 1.97546 3.66308 2.36034C3.5227 2.65543 3.34782 2.71707 3.10815 2.55618C2.89068 2.41033 2.59132 2.40645 2.31805 2.54623C2.07628 2.66999 2.01329 2.77458 2.17827 2.77871C2.34325 2.78283 2.28715 2.88403 2.05318 3.00366C1.80781 3.12937 1.33747 3.13179 0.939121 3.00924C0.118723 2.75686 -0.159346 3.01774 0.0860238 3.80884C0.254603 4.35194 1.42836 4.7111 1.42836 4.21969C1.42836 4.09447 1.63893 3.99206 1.896 3.99206C2.15307 3.99206 2.28025 3.88286 2.17827 3.74939C2.07628 3.61592 2.20346 3.50672 2.46053 3.50672C3.01066 3.50672 3.03466 3.62029 2.61771 4.25075C2.35524 4.64727 2.40744 4.72007 2.95427 4.72007C3.5245 4.72007 3.55269 4.76885 3.18974 5.13067C2.95547 5.36461 2.93057 5.46726 3.13245 5.36946C3.32712 5.27482 3.57129 5.30855 3.67508 5.4442C3.77857 5.57986 3.69518 5.69076 3.4891 5.69076C3.27793 5.69076 3.39072 5.89848 3.74797 6.16785C4.09623 6.43042 4.46758 6.86528 4.57317 7.13465C4.70785 7.47803 4.96162 7.59475 5.42146 7.52511C5.78262 7.47026 6.07778 7.40935 6.07778 7.38945C6.07778 7.36955 6.41254 7.30379 6.82199 7.24312C7.5422 7.13635 7.547 7.14436 6.97197 7.49599C6.39154 7.85077 6.39484 7.85951 7.10995 7.86703C7.82296 7.87455 7.82686 7.88474 7.25993 8.25676C6.93987 8.46691 6.84359 8.57102 7.04666 8.48827C7.24944 8.40527 7.99964 8.49797 8.71356 8.69405C10.3016 9.13013 16.7925 9.04957 16.9811 8.5914C17.0567 8.4077 16.8845 8.36378 16.4871 8.46594C16.1517 8.55209 15.7903 8.50889 15.6841 8.37009C15.5584 8.20556 16.1316 8.11747 17.3264 8.11747C18.4734 8.11747 19.092 8.02646 18.9762 7.8748C18.6534 7.45231 23.2923 7.57073 23.8212 7.99832C24.2756 8.3662 24.9742 8.26574 24.6761 7.87552C24.5885 7.76098 24.8057 7.59281 25.1584 7.50229C25.7718 7.3448 26.445 7.76438 26.1657 8.13009C26.0997 8.21648 26.6861 8.23759 27.4687 8.17668C28.3638 8.10703 29.3042 8.20531 30.0019 8.44119C30.612 8.64746 31.1844 8.72099 31.2735 8.60451C31.3622 8.48803 31.8395 8.40212 32.3338 8.41352C32.8285 8.42493 33.3276 8.35747 33.4434 8.2638C33.5592 8.17013 32.9161 8.10679 32.0144 8.12281C31.1127 8.13906 29.7319 8.07548 28.946 7.98157C27.7483 7.83864 27.5752 7.75443 27.8752 7.46201C28.0741 7.26836 28.5024 7.17008 28.8384 7.24118C29.1713 7.31156 29.6453 7.2373 29.8918 7.07592C30.193 6.87887 30.2725 6.87378 30.1345 7.06039C29.9848 7.26254 31.0014 7.34359 33.8807 7.35912C36.9535 7.37586 37.753 7.31592 37.4731 7.08951C37.2751 6.92935 36.7445 6.77647 36.2936 6.74953C35.8431 6.72284 35.373 6.69202 35.2492 6.6811C35.1253 6.67042 35.0242 6.5685 35.0242 6.45469C35.0242 6.34087 36.1377 6.28748 37.4989 6.33578C38.8601 6.38407 40.1761 6.35301 40.4235 6.26662C41.1887 5.99968 42.3787 6.07927 42.2935 6.39159C42.2497 6.55272 42.3847 6.66629 42.5935 6.64421C43.484 6.54981 45.9077 6.67357 45.7449 6.80535C45.5052 6.99924 40.2495 6.96915 39.4711 6.76943C39.0278 6.65537 38.8913 6.70342 38.9894 6.9393C39.0881 7.17639 39.6091 7.24895 40.8573 7.19969C41.878 7.1594 42.765 7.24967 43.0185 7.41979C43.3443 7.63868 43.5329 7.64037 43.7957 7.42779C43.9868 7.27321 44.4874 7.1577 44.908 7.17105L45.6729 7.19507L44.923 7.38945C43.9559 7.64013 44.1146 7.65882 48.2226 7.77724C52.2421 7.89348 52.4319 7.93158 52.2751 8.59067C52.1614 9.06752 52.2915 9.08815 55.4211 9.08815C57.2166 9.08815 58.7498 9.17163 58.8274 9.27379C58.9054 9.37572 59.9595 9.44051 61.1698 9.4177C62.3805 9.39489 64.8555 9.35436 66.6703 9.32742C68.485 9.30073 70.2398 9.16144 70.5698 9.01802C71.3467 8.68046 72.5195 8.57636 72.5195 8.84524C72.5195 9.1493 73.732 9.25802 74.7369 9.04423C75.2141 8.94255 75.7426 8.92847 75.9112 9.01292C76.4035 9.25899 77.9189 9.29442 77.9189 9.06C77.9189 8.94206 78.1888 8.84548 78.5188 8.84548C78.8488 8.84548 79.1187 8.73628 79.1187 8.60281C79.1187 8.46934 79.4643 8.36014 79.8863 8.36014C80.3084 8.36014 80.5843 8.45114 80.4994 8.56228C80.4146 8.67367 80.5079 8.76637 80.7067 8.76831C80.9056 8.77049 81.4968 8.85009 82.0203 8.94546C82.8788 9.1015 82.9561 9.06946 82.8101 8.61785C82.6658 8.1711 82.4027 8.11431 80.3585 8.08713C78.3124 8.05995 78.2116 8.03811 79.4115 7.88159C80.15 7.78501 81.0148 7.76147 81.333 7.82869C81.7704 7.92114 81.8499 7.86776 81.6576 7.6098C81.4449 7.32417 81.4902 7.32514 81.9336 7.61659C82.3946 7.9192 82.5041 7.9192 82.7696 7.61659C83.0209 7.32951 83.047 7.33874 82.9174 7.66877C82.6748 8.28588 83.5921 8.36742 88.8405 8.19512C92.4329 8.07718 93.5595 8.10824 93.3973 8.32058C93.2785 8.47589 93.31 8.60281 93.4671 8.60281C93.6243 8.60281 93.8304 8.439 93.9255 8.2388C94.0203 8.0386 94.271 7.87649 94.4825 7.87844C94.7549 7.8811 94.7357 7.95706 94.4168 8.13955C94.017 8.36839 94.017 8.38538 94.4168 8.29195C94.6643 8.23395 94.8497 8.01579 94.829 7.80709C94.8038 7.55326 94.9526 7.47657 95.2789 7.57534C95.7178 7.70808 95.7214 7.67629 95.3167 7.25696C94.8785 6.80316 94.8875 6.80195 95.6692 7.20527C96.1974 7.47803 96.5097 7.52753 96.5825 7.35038C96.6944 7.07883 98.3979 7.06646 102.141 7.31034C104.138 7.44066 104.748 7.8748 102.934 7.8748C102.116 7.8748 101.892 7.95997 102.017 8.22376C102.114 8.42712 101.971 8.61518 101.674 8.67488C101.395 8.73118 101.841 8.72196 102.666 8.65425C103.491 8.58655 104.328 8.52904 104.527 8.52661C104.726 8.52394 104.82 8.431 104.735 8.31961C104.65 8.20847 105.094 8.12839 105.723 8.14173C106.689 8.16212 106.75 8.19172 106.118 8.33393C105.61 8.44847 105.49 8.56155 105.743 8.68823C105.948 8.79039 106.25 8.80665 106.415 8.72414C106.58 8.64164 106.717 8.71711 106.72 8.89183C106.724 9.14494 106.777 9.14251 106.982 8.88018C107.174 8.63581 107.296 8.62441 107.458 8.83601C107.578 8.99302 107.897 9.05248 108.167 8.96851C108.438 8.88479 109.324 8.76321 110.137 8.69891C110.949 8.63436 111.725 8.52612 111.861 8.45842C111.997 8.39047 112.027 8.50428 111.929 8.71152C111.816 8.95031 111.918 9.08815 112.208 9.08815C112.459 9.08815 112.733 8.95177 112.816 8.78481C112.937 8.54214 112.972 8.54214 112.991 8.78481C113.004 8.95177 113.225 9.08815 113.482 9.08815C113.776 9.08815 113.866 8.97579 113.725 8.78481C113.55 8.54942 113.605 8.55063 113.971 8.79039C114.443 9.0998 117.384 9.16047 117.964 8.8729C118.129 8.79112 120.305 8.71201 122.8 8.69696C125.295 8.68216 127.509 8.58315 127.721 8.47759C127.96 8.35747 128.031 8.38198 127.909 8.54238C127.638 8.89741 132.955 8.9309 133.766 8.57927C134.106 8.43221 134.305 8.41522 134.208 8.54166C134.105 8.67731 134.799 8.77195 135.897 8.77219L137.761 8.77243L136.562 8.47031C135.217 8.13203 135.22 8.12717 136.796 7.99298C137.497 7.93352 137.86 7.98861 137.746 8.13737C137.635 8.28297 137.987 8.3548 138.637 8.31937C139.228 8.28734 139.711 8.18638 139.711 8.09538C139.711 8.00438 142.883 7.94468 146.76 7.96288C150.637 7.98133 153.809 8.08446 153.809 8.19245C153.809 8.30044 153.684 8.32592 153.53 8.24924C153.377 8.17231 153.153 8.23783 153.033 8.39435C152.872 8.60499 153.19 8.63775 154.254 8.51957C155.046 8.43197 156.087 8.36014 156.569 8.36014C157.189 8.36014 157.379 8.2718 157.219 8.0568C157.055 7.83573 157.126 7.84009 157.482 8.07354C157.835 8.30505 158.13 8.32495 158.544 8.14562C158.891 7.99516 159.225 7.98521 159.392 8.11989C159.745 8.406 161.998 7.79811 161.686 7.50084C161.561 7.38169 161.702 7.43556 162 7.62048C162.462 7.90731 162.529 7.90731 162.45 7.61999C162.378 7.35572 162.795 7.29044 164.38 7.31787C165.491 7.33728 166.477 7.25186 166.572 7.12858C166.666 7.00506 166.432 6.90241 166.051 6.90047C165.493 6.89732 165.446 6.85072 165.808 6.66144C166.157 6.47895 166.056 6.41804 165.358 6.38941C164.593 6.3581 164.564 6.33626 165.168 6.2438C165.558 6.18386 166.024 6.25351 166.202 6.39814C166.611 6.7289 167.107 6.74443 166.858 6.41877C166.751 6.27948 167.024 6.1761 167.497 6.1761C168.263 6.1761 168.282 6.19964 167.77 6.50298C167.387 6.72963 167.323 6.883 167.562 7.00264C167.752 7.09776 167.908 7.04705 167.908 6.89004C167.908 6.72429 168.159 6.65804 168.507 6.73157C168.837 6.80146 169.183 6.75948 169.275 6.63863C169.367 6.51778 169.199 6.40785 168.9 6.3945C168.516 6.37752 168.576 6.31369 169.108 6.1761C169.648 6.03608 169.278 5.97517 167.783 5.95769C165.587 5.93197 165.3 5.79413 167.019 5.59053C167.59 5.52283 168.605 5.37237 169.273 5.25662C169.941 5.14062 170.784 5.06345 171.147 5.08505C171.546 5.10883 171.807 4.98507 171.807 4.77249C171.807 4.52812 172.036 4.45629 172.557 4.53686C173.044 4.61209 173.307 4.54292 173.307 4.33932C173.307 4.16678 173.003 3.97532 172.632 3.91344C172.261 3.8518 172.565 3.79477 173.307 3.78725C174.049 3.77948 176.817 3.69843 179.456 3.60743C182.096 3.51618 184.188 3.50138 184.106 3.57442C183.898 3.75788 180.877 4.01147 177.706 4.11145C176.248 4.15732 174.978 4.25851 174.882 4.33617C174.786 4.41382 174.999 4.4774 175.357 4.4774C175.714 4.4774 176.007 4.60359 176.007 4.75769C176.007 4.91664 176.266 4.84772 176.607 4.59874C176.937 4.35728 177.207 4.2704 177.207 4.40606C177.207 4.54171 177.578 4.60068 178.031 4.5371C178.832 4.42474 178.839 4.43275 178.256 4.80816C177.693 5.17144 177.761 5.1894 179.381 5.10398C180.33 5.05423 181.106 5.11126 181.106 5.23065C181.106 5.35029 180.802 5.45682 180.431 5.46726C180.06 5.47769 179.925 5.54151 180.131 5.60873C180.814 5.83175 180.52 6.14431 179.554 6.22148C178.367 6.31612 178.022 6.90411 179.153 6.90411C179.591 6.90411 180.133 7.05311 180.358 7.23511C180.635 7.45886 181.268 7.53408 182.312 7.46759C183.162 7.41323 183.784 7.46468 183.694 7.58189C183.603 7.70056 184.116 7.72288 184.856 7.63212C185.584 7.54258 186.351 7.55496 186.56 7.6593C186.769 7.76365 187.011 7.75686 187.098 7.64377C187.221 7.48337 189.644 7.25598 192.297 7.156C192.431 7.15091 192.445 7.0104 192.328 6.84344C192.162 6.60466 192.2 6.60296 192.51 6.83495C192.822 7.0684 192.985 7.04316 193.294 6.71361C193.561 6.43017 193.689 6.39936 193.695 6.61703C193.702 6.8318 193.914 6.883 194.342 6.77307C194.771 6.6629 194.912 6.69736 194.774 6.87815C194.661 7.02593 194.716 7.14678 194.896 7.14678C195.076 7.14678 195.301 6.98371 195.395 6.78423C195.49 6.58476 195.702 6.48914 195.868 6.57189C196.068 6.67187 196.067 6.77283 195.865 6.87378C195.698 6.95726 197.269 6.98783 199.357 6.94197C201.445 6.89586 203.086 6.90945 203.003 6.97206C202.921 7.03467 201.369 7.16134 199.554 7.2538C196.369 7.41615 194.526 7.83985 196.719 7.90586C198.705 7.96555 202.27 7.89882 204.503 7.76001C205.741 7.68309 207.158 7.59572 207.652 7.56563C208.147 7.5353 208.78 7.35572 209.059 7.16595C209.615 6.78836 211.06 6.65246 211.292 6.95604C211.372 7.06088 211.784 7.14678 212.207 7.14678C212.837 7.14678 212.912 7.20891 212.622 7.49162C212.331 7.77481 212.379 7.81316 212.89 7.70517C213.231 7.63285 213.589 7.4722 213.684 7.34844C213.784 7.21691 214.032 7.24167 214.279 7.40741C214.853 7.79301 214.817 7.5171 214.231 7.04268C213.802 6.69614 213.872 6.66144 214.998 6.66144C215.712 6.66144 216.162 6.56292 216.06 6.42872C215.952 6.28773 216.328 6.24914 217.017 6.33092C217.641 6.40518 218.354 6.45735 218.601 6.44716C221.128 6.34257 223.866 6.4855 224.054 6.73157C224.216 6.94318 224.385 6.90338 224.672 6.58597C224.948 6.28118 225.564 6.12247 226.709 6.06156C227.611 6.01351 228.114 6.02758 227.825 6.09286C227.223 6.22924 227.115 6.65149 227.675 6.68158C227.882 6.69275 228.354 6.72915 228.725 6.76239C229.096 6.79564 229.4 6.72551 229.4 6.6066C229.4 6.48745 229.535 6.4576 229.7 6.5401C229.865 6.62261 230 6.51972 230 6.31175C230 6.10378 229.878 5.93343 229.728 5.93343C229.579 5.93343 229.527 5.71502 229.613 5.44809C229.756 5.00473 229.47 4.83898 228.725 4.93411C228.601 4.94988 228.521 4.88096 228.548 4.78074C228.653 4.37888 228.127 3.78749 227.764 3.90009C227.552 3.96585 227.298 3.85107 227.2 3.6448C227.102 3.43853 227.118 3.29584 227.236 3.32763C227.354 3.35942 227.518 3.27618 227.6 3.14271C227.683 3.00924 227.326 2.86679 226.808 2.82603C226.092 2.76973 225.897 2.65276 225.998 2.34068C226.091 2.04996 225.796 1.80851 224.99 1.51706L223.851 1.105L224.901 1.07321L225.951 1.04167L225.126 0.798025C224.672 0.663828 224.301 0.472118 224.301 0.371653C224.301 0.271187 223.457 0.156161 222.426 0.115877C220.511 0.0411346 211.095 -0.0379753 211.003 0.0200231ZM113.258 1.00308C113.475 1.07321 113.734 1.06448 113.833 0.98391C113.933 0.903343 113.756 0.846075 113.44 0.856509C113.09 0.868158 113.019 0.92567 113.258 1.00308ZM173.688 0.99653C173.485 1.06302 173.08 1.06715 172.788 1.00551C172.496 0.943871 172.662 0.889512 173.157 0.884659C173.652 0.879805 173.891 0.930038 173.688 0.99653ZM191.24 1.01546C190.462 1.06521 189.112 1.06569 188.24 1.01643C187.369 0.967409 188.005 0.92664 189.655 0.925912C191.305 0.925427 192.018 0.965468 191.24 1.01546ZM74.3193 1.90339C74.3193 1.95581 74.5218 2.06161 74.7693 2.13854C75.0167 2.21522 75.2192 2.17227 75.2192 2.04317C75.2192 1.91383 75.0167 1.80802 74.7693 1.80802C74.5218 1.80802 74.3193 1.85097 74.3193 1.90339ZM73.6915 2.15407C73.4329 2.3635 71.0197 2.45644 71.0197 2.25696C71.0197 2.14364 71.6497 2.05069 72.4197 2.05069C73.1894 2.05069 73.762 2.09729 73.6915 2.15407ZM79.7186 2.57583C79.7186 2.68746 79.4151 2.78696 79.0437 2.79739C78.6724 2.80758 78.1318 2.85248 77.8424 2.89737C77.5529 2.94202 77.3921 2.87917 77.4851 2.75735C77.5781 2.63553 77.5112 2.53603 77.3366 2.53603C77.1621 2.53603 77.019 2.64524 77.019 2.77871C77.019 3.15946 76.5028 3.06263 76.3045 2.64475C76.1539 2.32685 76.4064 2.27638 77.9222 2.32054C78.9102 2.34942 79.7186 2.4642 79.7186 2.57583ZM69.939 3.0619C69.8541 3.17305 69.4551 3.26405 69.0523 3.26405C68.6494 3.26405 68.3201 3.17305 68.3201 3.0619C68.3201 2.95052 68.719 2.85951 69.2067 2.85951C69.6945 2.85951 70.0238 2.95052 69.939 3.0619ZM73.5508 3.48124C73.4731 3.54433 73.2601 3.47493 73.0778 3.32738C72.8957 3.18008 72.5267 3.11577 72.258 3.18445C71.8602 3.28661 71.8482 3.26453 72.1929 3.06651C72.6056 2.82918 73.8769 3.21745 73.5508 3.48124ZM173.307 2.87432C173.307 3.05317 171.517 3.17596 171.202 3.01871C171.026 2.93086 171.428 2.8418 172.095 2.82069C172.761 2.79957 173.307 2.8236 173.307 2.87432ZM186.636 3.0471C186.434 3.31064 185.694 3.33345 185.502 3.08204C185.426 2.98206 185.687 2.88427 186.082 2.8651C186.478 2.84593 186.727 2.92795 186.636 3.0471ZM208.853 3.02841C207.824 3.26526 199.403 3.45818 199.404 3.24488C199.404 3.16771 200.177 3.07913 201.122 3.04831C202.067 3.01725 202.866 2.97139 202.898 2.94591C202.93 2.92067 204.485 2.88233 206.354 2.86073C208.66 2.83403 209.463 2.88791 208.853 3.02841ZM158.609 3.41135C158.609 3.46377 158.406 3.50672 158.159 3.50672C157.911 3.50672 157.709 3.40091 157.709 3.27157C157.709 3.14247 157.911 3.09952 158.159 3.1762C158.406 3.25313 158.609 3.35893 158.609 3.41135ZM183.724 3.16795C183.625 3.24852 183.366 3.25725 183.15 3.18712C182.91 3.10971 182.981 3.0522 183.331 3.04055C183.647 3.03011 183.824 3.08738 183.724 3.16795ZM184.924 3.16795C184.825 3.24852 184.566 3.25725 184.35 3.18712C184.11 3.10971 184.181 3.0522 184.531 3.04055C184.847 3.03011 185.024 3.08738 184.924 3.16795ZM129.316 3.63849C129.218 3.84452 129.074 3.961 128.995 3.89742C128.917 3.83384 128.941 3.66518 129.05 3.52298C129.346 3.13567 129.519 3.2109 129.316 3.63849ZM153.473 3.63946C153.548 3.69988 153.055 3.74939 152.377 3.74939C151.7 3.74939 151.062 3.85859 150.96 3.99206C150.858 4.12553 150.614 4.23303 150.417 4.23109C150.202 4.22866 150.24 4.13329 150.51 3.99206C150.846 3.81661 150.655 3.74672 149.76 3.71663L148.56 3.67659L149.91 3.52686C151.274 3.37592 153.224 3.43731 153.473 3.63946ZM154.784 3.4247C154.578 3.49216 154.241 3.49216 154.034 3.4247C153.828 3.35748 153.997 3.30239 154.409 3.30239C154.822 3.30239 154.991 3.35748 154.784 3.4247ZM64.2706 3.74939C64.1686 3.88286 63.7894 3.98114 63.428 3.96779C62.816 3.94547 62.8226 3.93018 63.5207 3.74939C63.9331 3.64261 64.3123 3.54433 64.3633 3.53098C64.4142 3.51764 64.3726 3.61592 64.2706 3.74939ZM66.2203 3.74939C66.2203 3.88286 66.0853 3.99206 65.9204 3.99206C65.7554 3.99206 65.6204 3.88286 65.6204 3.74939C65.6204 3.61592 65.7554 3.50672 65.9204 3.50672C66.0853 3.50672 66.2203 3.61592 66.2203 3.74939ZM170.63 3.73289C170.085 4.0122 166.968 3.99837 167.182 3.7176C167.271 3.6016 168.179 3.50842 169.2 3.51036C170.42 3.51278 170.911 3.58923 170.63 3.73289ZM208.306 3.66567C207.999 3.91441 202.246 3.97119 201.775 3.72997C201.515 3.59699 202.724 3.51278 204.928 3.51036C206.894 3.50842 208.414 3.57831 208.306 3.66567ZM64.1254 4.30486L65.4704 4.40824L63.994 4.38228C62.9555 4.36383 62.4816 4.24808 62.3964 3.99206C62.3127 3.74041 62.3532 3.71663 62.5278 3.91465C62.667 4.07238 63.3857 4.24784 64.1254 4.30486ZM60.9788 4.43057C60.8867 4.50531 60.6446 4.43081 60.4409 4.26482C60.147 4.02506 60.1815 3.9974 60.6089 4.12893C60.9047 4.22017 61.0712 4.35582 60.9788 4.43057ZM62.139 4.37645C62.2509 4.61257 62.184 4.72371 61.9647 4.6645C61.5163 4.54365 61.2694 3.99206 61.6639 3.99206C61.825 3.99206 62.0385 4.16508 62.139 4.37645ZM148.339 4.15877C148.052 4.21944 147.512 4.22163 147.139 4.16363C146.766 4.10563 147 4.05588 147.66 4.05321C148.32 4.05054 148.626 4.09811 148.339 4.15877ZM173.607 4.4774C173.607 4.61087 173.809 4.72007 174.057 4.72007C174.304 4.72007 174.507 4.61087 174.507 4.4774C174.507 4.34393 174.304 4.23473 174.057 4.23473C173.809 4.23473 173.607 4.34393 173.607 4.4774ZM54.9009 4.64824C54.532 4.70576 53.8571 4.70721 53.4011 4.65164C52.9452 4.59583 53.2469 4.54875 54.0718 4.54681C54.8967 4.54511 55.2699 4.59073 54.9009 4.64824ZM64.6392 4.86665C64.5396 4.94721 64.2808 4.95595 64.0645 4.88582C63.8251 4.8084 63.8962 4.75089 64.2457 4.73924C64.5618 4.72881 64.7388 4.78608 64.6392 4.86665ZM134.312 5.06976C134.312 5.12873 134.177 5.24424 134.012 5.32675C133.847 5.40926 133.712 5.36097 133.712 5.21973C133.712 5.0785 133.847 4.96274 134.012 4.96274C134.177 4.96274 134.312 5.01079 134.312 5.06976ZM172.351 5.12849C172.567 5.19862 172.826 5.18988 172.926 5.10932C173.025 5.02875 172.848 4.97148 172.532 4.98192C172.183 4.99356 172.112 5.05108 172.351 5.12849ZM173.551 5.12849C173.767 5.19862 174.026 5.18988 174.126 5.10932C174.225 5.02875 174.048 4.97148 173.732 4.98192C173.383 4.99356 173.312 5.05108 173.551 5.12849ZM130.831 5.46313C130.923 5.53812 130.159 5.6034 129.131 5.60825C127.96 5.61383 127.542 5.55583 128.013 5.45294C128.891 5.26074 130.588 5.26681 130.831 5.46313ZM225.118 5.54297C225.218 5.62426 224.097 5.68299 222.626 5.67377C220.955 5.66309 220.177 5.58325 220.551 5.46095C221.215 5.24449 224.829 5.30952 225.118 5.54297ZM125.232 5.59466C125.132 5.67522 124.873 5.68396 124.657 5.61383C124.418 5.53642 124.489 5.47891 124.838 5.46726C125.154 5.45682 125.331 5.51409 125.232 5.59466ZM219.801 5.5551C219.801 5.81112 219.226 5.91887 219.054 5.69464C218.951 5.55899 219.077 5.44809 219.334 5.44809C219.591 5.44809 219.801 5.49614 219.801 5.5551ZM46.0157 6.05476C45.7683 6.25497 45.3954 6.41877 45.1869 6.41877C44.9746 6.41877 45.0636 6.26249 45.3906 6.06253C46.1546 5.5949 46.5908 5.58956 46.0157 6.05476ZM170.607 5.92591C170.607 6.05501 170.81 6.09796 171.057 6.02127C171.305 5.94435 171.507 5.83854 171.507 5.78613C171.507 5.73371 171.305 5.69076 171.057 5.69076C170.81 5.69076 170.607 5.79656 170.607 5.92591ZM44.1731 6.1761C44.7046 6.36101 44.6791 6.38649 43.9481 6.40178C43.4945 6.411 43.1232 6.30957 43.1232 6.1761C43.1232 5.8912 43.3539 5.8912 44.1731 6.1761ZM125.394 6.09262C125.191 6.15911 124.786 6.16324 124.494 6.1016C124.202 6.03996 124.368 5.9856 124.863 5.98075C125.358 5.97589 125.597 6.02613 125.394 6.09262ZM129.887 6.10888C129.351 6.16275 128.474 6.16275 127.938 6.10888C127.401 6.05525 127.84 6.01108 128.913 6.01108C129.985 6.01108 130.424 6.05525 129.887 6.10888ZM148.329 6.08C148.229 6.16057 147.97 6.1693 147.754 6.09917C147.515 6.02176 147.586 5.96425 147.935 5.9526C148.251 5.94216 148.428 5.99943 148.329 6.08ZM150.81 6.41392C150.327 6.67188 151.265 6.7539 153.659 6.6629C154.319 6.6379 154.757 6.701 154.632 6.80316C154.507 6.90532 153.455 6.97254 152.294 6.95289C150.718 6.92595 150.231 6.99196 150.37 7.21376C150.472 7.37708 150.285 7.26278 149.954 6.95968C149.552 6.59034 149.284 6.49909 149.143 6.68328C149.028 6.83471 149.101 7.04243 149.306 7.14484C149.515 7.24895 149.101 7.32854 148.37 7.3249C147.65 7.32151 147.309 7.27006 147.613 7.21061C147.916 7.15115 148.391 6.9194 148.668 6.69517C148.945 6.47119 149.642 6.26225 150.216 6.2307C150.992 6.18847 151.144 6.23531 150.81 6.41392ZM200.229 6.3433C199.94 6.40445 199.467 6.40445 199.179 6.3433C198.89 6.28239 199.126 6.2324 199.704 6.2324C200.281 6.2324 200.517 6.28239 200.229 6.3433ZM202.022 6.32267C201.923 6.40324 201.664 6.41197 201.447 6.34184C201.208 6.26443 201.279 6.20692 201.629 6.19527C201.945 6.18484 202.122 6.2421 202.022 6.32267ZM34.8673 6.75948L35.6787 7.09995L34.5586 7.07422C33.9425 7.06015 33.5937 7.00676 33.7832 6.95556C33.9728 6.9046 34.0517 6.76288 33.9584 6.64081C33.7259 6.33626 33.9191 6.3615 34.8673 6.75948ZM83.8368 6.56534C83.7372 6.64591 83.4784 6.65465 83.2621 6.58451C83.0227 6.5071 83.0938 6.44959 83.4433 6.43794C83.7594 6.42751 83.9364 6.48478 83.8368 6.56534ZM85.193 6.57942C84.9869 6.64688 84.6494 6.64688 84.4431 6.57942C84.237 6.5122 84.4056 6.45711 84.818 6.45711C85.2305 6.45711 85.3993 6.5122 85.193 6.57942ZM147.96 6.66144C147.858 6.79491 147.479 6.89319 147.118 6.87984C146.506 6.85752 146.512 6.84223 147.21 6.66144C147.623 6.55467 148.002 6.45638 148.053 6.44304C148.104 6.42969 148.062 6.52797 147.96 6.66144ZM156.209 6.66144C156.209 6.79491 156.066 6.90411 155.891 6.90411C155.717 6.90411 155.657 6.79491 155.759 6.66144C155.861 6.52797 156.004 6.41877 156.077 6.41877C156.15 6.41877 156.209 6.52797 156.209 6.66144ZM159.26 6.59446C158.545 6.66654 158.307 6.79394 158.425 7.04219C158.654 7.52341 158.304 7.4773 157.842 6.96526C157.631 6.73181 157.35 6.62844 157.217 6.7357C157.085 6.84272 157.175 7.032 157.418 7.15625C157.66 7.28049 157.707 7.38363 157.521 7.38581C157.335 7.38775 157.025 7.23633 156.833 7.04899C156.386 6.61291 156.687 6.52651 158.717 6.50783C159.625 6.49958 159.848 6.53525 159.26 6.59446ZM161.384 6.57942C161.177 6.64688 160.84 6.64688 160.634 6.57942C160.428 6.5122 160.596 6.45711 161.009 6.45711C161.421 6.45711 161.59 6.5122 161.384 6.57942ZM169.369 6.82233C169.022 7.16231 169.022 7.24312 169.366 7.33704C169.712 7.43095 169.712 7.48094 169.366 7.65785C169.094 7.79763 169.326 7.86849 170.065 7.87116C170.674 7.8731 171.245 7.77918 171.334 7.66222C171.424 7.54525 172.478 7.47366 173.677 7.50327C174.876 7.53263 176.262 7.47754 176.757 7.38047C177.752 7.18561 177.802 7.19022 172.71 7.00288C171.475 6.95726 170.417 6.80729 170.361 6.66945C170.211 6.30471 169.839 6.36199 169.369 6.82233ZM176.607 6.65028C176.854 6.78593 177.315 6.89829 177.632 6.90047C178.399 6.90532 178.16 6.76652 177.057 6.5668C176.399 6.44789 176.278 6.47046 176.607 6.65028ZM144.211 6.90411C144.211 7.03758 144.068 7.14678 143.893 7.14678C143.718 7.14678 143.659 7.03758 143.761 6.90411C143.863 6.77064 144.005 6.66144 144.078 6.66144C144.151 6.66144 144.211 6.77064 144.211 6.90411ZM36.7427 7.05068C36.6431 7.13125 36.3842 7.13999 36.1679 7.06986C35.9286 6.99244 35.9997 6.93493 36.3491 6.92328C36.6653 6.91285 36.8423 6.97012 36.7427 7.05068ZM38.0238 7.14678C38.0238 7.28025 38.1588 7.38945 38.3238 7.38945C38.4888 7.38945 38.6237 7.28025 38.6237 7.14678C38.6237 7.01331 38.4888 6.90411 38.3238 6.90411C38.1588 6.90411 38.0238 7.01331 38.0238 7.14678ZM94.4975 7.0633C94.2944 7.1298 93.8895 7.13392 93.5976 7.07228C93.3058 7.01064 93.4719 6.95629 93.9669 6.95143C94.4618 6.94658 94.7006 6.99681 94.4975 7.0633ZM168.358 7.14678C168.46 7.28025 168.602 7.38945 168.675 7.38945C168.748 7.38945 168.808 7.28025 168.808 7.14678C168.808 7.01331 168.665 6.90411 168.49 6.90411C168.315 6.90411 168.256 7.01331 168.358 7.14678ZM185.081 7.07544C184.71 7.13319 184.102 7.13319 183.731 7.07544C183.36 7.01744 183.663 6.97012 184.406 6.97012C185.148 6.97012 185.452 7.01744 185.081 7.07544ZM205.778 7.07544C205.407 7.13319 204.799 7.13319 204.428 7.07544C204.057 7.01744 204.361 6.97012 205.103 6.97012C205.846 6.97012 206.149 7.01744 205.778 7.07544ZM27.3343 7.50933C27.2396 7.70881 27.0272 7.80442 26.8616 7.72167C26.6768 7.62921 26.7179 7.49113 26.9681 7.36276C27.5143 7.08296 27.5329 7.09024 27.3343 7.50933ZM146.76 7.38945C146.658 7.52292 146.448 7.63212 146.293 7.63212C146.137 7.63212 146.01 7.52292 146.01 7.38945C146.01 7.25598 146.221 7.14678 146.478 7.14678C146.735 7.14678 146.862 7.25598 146.76 7.38945ZM160.334 7.31398C160.045 7.37514 159.572 7.37514 159.284 7.31398C158.995 7.25307 159.231 7.20308 159.809 7.20308C160.386 7.20308 160.622 7.25307 160.334 7.31398ZM86.5464 7.55617C86.2596 7.61684 85.7197 7.61902 85.3465 7.56102C84.9734 7.50302 85.208 7.45328 85.8679 7.45061C86.5278 7.44794 86.8332 7.4955 86.5464 7.55617ZM135.634 7.72895C135.319 7.90367 134.589 8.01749 134.012 7.98157C133.434 7.9459 132.583 7.90707 132.119 7.89566C131.656 7.88426 131.34 7.79277 131.418 7.69279C131.496 7.59281 132.606 7.48846 133.884 7.46104C135.879 7.41809 136.126 7.45595 135.634 7.72895ZM167.008 7.63212C167.008 7.76559 167.135 7.8748 167.29 7.8748C167.445 7.8748 167.656 7.76559 167.758 7.63212C167.86 7.49866 167.733 7.38945 167.475 7.38945C167.218 7.38945 167.008 7.49866 167.008 7.63212ZM209.246 7.5552C209.463 7.62533 209.722 7.61659 209.821 7.53603C209.921 7.45546 209.744 7.39819 209.428 7.40863C209.078 7.42027 209.007 7.47779 209.246 7.5552ZM228.8 7.63212C228.8 7.76559 229.078 7.8748 229.418 7.8748C229.757 7.8748 229.952 7.76559 229.85 7.63212C229.748 7.49866 229.47 7.38945 229.232 7.38945C228.995 7.38945 228.8 7.49866 228.8 7.63212ZM25.2595 7.85417C25.3528 7.97623 25.2595 8.12499 25.0522 8.18493C24.845 8.24463 24.7841 8.38732 24.9166 8.50186C25.0495 8.6164 25.2835 8.54942 25.4371 8.3531C25.8066 7.88038 25.7964 7.63212 25.4077 7.63212C25.2331 7.63212 25.1662 7.7321 25.2595 7.85417ZM38.5566 7.81122C39.4507 7.86169 40.063 8.0005 39.9637 8.13033C39.8671 8.25676 40.2349 8.36402 40.7808 8.36887C41.3267 8.37373 43.8155 8.44095 46.3115 8.5186C49.342 8.613 51.0359 8.57223 51.4109 8.39605C51.8332 8.19755 50.8346 8.13033 47.38 8.12475C44.3971 8.12014 42.8529 8.03253 42.9732 7.8748C43.0929 7.71803 42.0649 7.6479 40.0663 7.67702C38.3565 7.70177 37.6816 7.76195 38.5566 7.81122ZM105.734 7.7787C105.635 7.85926 105.376 7.868 105.159 7.79787C104.92 7.72046 104.991 7.66294 105.341 7.6513C105.657 7.64086 105.834 7.69813 105.734 7.7787ZM176.879 7.89348C176.572 8.05122 176.681 8.11116 177.282 8.11383C178.177 8.11771 178.339 7.9988 177.704 7.80199C177.483 7.73332 177.112 7.77457 176.879 7.89348ZM181.406 7.86436C179.967 8.04928 180.662 8.29316 182.156 8.12766C182.816 8.05437 183.153 7.93498 182.906 7.86193C182.658 7.78913 181.983 7.7901 181.406 7.86436ZM191.455 7.84713L190.555 8.01919L191.423 8.1626C191.901 8.24171 192.679 8.21623 193.153 8.10606C193.678 7.98448 193.948 7.99492 193.842 8.133C193.741 8.2655 194.396 8.3463 195.412 8.32713C196.37 8.30893 196.817 8.2439 196.404 8.1825C195.992 8.12111 195.519 7.99055 195.354 7.89227C194.959 7.65688 192.592 7.62946 191.455 7.84713ZM225.876 7.79933C226.164 7.86048 226.637 7.86048 226.925 7.79933C227.214 7.73841 226.978 7.68842 226.4 7.68842C225.823 7.68842 225.587 7.73841 225.876 7.79933ZM20.2699 8.04054C20.4862 8.11067 20.7451 8.10193 20.8447 8.02137C20.9442 7.9408 20.7673 7.88353 20.4511 7.89397C20.1016 7.90561 20.0305 7.96313 20.2699 8.04054ZM42.1519 8.04151C41.8651 8.10218 41.3252 8.10436 40.9521 8.04636C40.5789 7.98837 40.8135 7.93862 41.4734 7.93595C42.1333 7.93328 42.4387 7.98084 42.1519 8.04151ZM127.193 8.03399C126.99 8.10048 126.585 8.1046 126.294 8.04297C126.002 7.98133 126.168 7.92697 126.663 7.92212C127.158 7.91726 127.397 7.96749 127.193 8.03399ZM130.631 8.02137C130.531 8.10193 130.273 8.11067 130.056 8.04054C129.817 7.96313 129.888 7.90561 130.237 7.89397C130.554 7.88353 130.731 7.9408 130.631 8.02137ZM172.183 8.16115C171.84 8.26889 172.021 8.32592 172.707 8.32592C173.285 8.32592 174.027 8.2354 174.357 8.1245C174.812 7.97162 174.685 7.93158 173.833 7.95949C173.215 7.97963 172.473 8.07039 172.183 8.16115ZM213.727 8.03544C213.933 8.10291 214.271 8.10291 214.477 8.03544C214.683 7.96822 214.514 7.91314 214.102 7.91314C213.69 7.91314 213.521 7.96822 213.727 8.03544ZM15.0458 8.40066C14.9609 8.51181 14.6888 8.60281 14.4413 8.60281C14.1939 8.60281 14.061 8.51181 14.1459 8.40066C14.2308 8.28928 14.5028 8.19828 14.7503 8.19828C14.9978 8.19828 15.1307 8.28928 15.0458 8.40066ZM95.6974 8.28564C95.9892 8.34728 96.3942 8.34315 96.5972 8.27666C96.8003 8.21017 96.5616 8.15993 96.0666 8.16479C95.5717 8.16964 95.4055 8.224 95.6974 8.28564ZM100.96 8.28321C101.176 8.35334 101.435 8.34461 101.535 8.26404C101.634 8.18347 101.457 8.1262 101.141 8.13664C100.792 8.14829 100.721 8.2058 100.96 8.28321ZM13.7268 8.50768C13.7268 8.70837 13.1443 8.82194 13.0108 8.64722C12.9241 8.53389 13.0498 8.44095 13.2901 8.44095C13.5304 8.44095 13.7268 8.47104 13.7268 8.50768ZM17.4764 8.60281C17.3744 8.73628 17.4341 8.84548 17.6087 8.84548C17.7832 8.84548 17.9263 8.73628 17.9263 8.60281C17.9263 8.46934 17.8669 8.36014 17.794 8.36014C17.7211 8.36014 17.5784 8.46934 17.4764 8.60281ZM53.1719 8.60281C53.2739 8.73628 53.2142 8.84548 53.0397 8.84548C52.8651 8.84548 52.722 8.73628 52.722 8.60281C52.722 8.46934 52.7814 8.36014 52.8543 8.36014C52.9272 8.36014 53.07 8.46934 53.1719 8.60281ZM116.989 8.53559C116.453 8.58946 115.576 8.58946 115.039 8.53559C114.503 8.48196 114.942 8.43779 116.014 8.43779C117.087 8.43779 117.525 8.48196 116.989 8.53559ZM201.204 8.56859C201.204 8.87266 201.879 9.24831 202.328 9.19395C202.535 9.1692 202.94 9.13183 203.228 9.1112C203.672 9.07917 203.684 9.04204 203.303 8.87096C202.549 8.53122 201.204 8.33757 201.204 8.56859ZM203.903 8.84548C203.903 8.97895 204.038 9.08815 204.203 9.08815C204.368 9.08815 204.503 8.97895 204.503 8.84548C204.503 8.71201 204.368 8.60281 204.203 8.60281C204.038 8.60281 203.903 8.71201 203.903 8.84548ZM209.078 8.77001C209.366 8.83116 209.839 8.83116 210.127 8.77001C210.416 8.7091 210.18 8.65911 209.603 8.65911C209.025 8.65911 208.789 8.7091 209.078 8.77001ZM191.905 9.04277C191.905 9.15125 192.546 9.26263 193.33 9.29005C194.367 9.32645 194.632 9.27379 194.304 9.0964C193.765 8.80447 191.905 8.76297 191.905 9.04277ZM200.881 8.90615C200.643 9.53442 200.764 9.72104 201.436 9.76617C202.179 9.81592 202.184 9.80548 201.654 9.33131C201.145 8.87678 200.935 8.76127 200.881 8.90615ZM20.5699 9.25389C20.7862 9.32403 21.045 9.31529 21.1446 9.23472C21.2442 9.15416 21.0672 9.09689 20.7511 9.10732C20.4016 9.11897 20.3305 9.17648 20.5699 9.25389ZM21.9008 9.25535C22.1894 9.3165 22.6621 9.3165 22.9507 9.25535C23.2393 9.19444 23.0032 9.14445 22.4258 9.14445C21.8483 9.14445 21.6123 9.19444 21.9008 9.25535ZM147.962 9.32815C147.857 9.4655 147.978 9.50627 148.245 9.42352C148.764 9.26215 148.859 9.08815 148.428 9.08815C148.272 9.08815 148.063 9.19614 147.962 9.32815ZM186.205 9.34514C186.205 9.48637 186.34 9.53466 186.505 9.45216C186.67 9.36965 186.805 9.25414 186.805 9.19517C186.805 9.1362 186.67 9.08815 186.505 9.08815C186.34 9.08815 186.205 9.2039 186.205 9.34514ZM221.364 9.3745C221.082 9.46526 222.055 9.54704 223.526 9.55651C224.997 9.56573 226.112 9.50166 226.003 9.41382C225.737 9.19857 222.009 9.16702 221.364 9.3745ZM227.15 9.33082L226.25 9.51598L227.208 9.54486C227.734 9.56063 228.248 9.46429 228.35 9.33082C228.555 9.06218 228.455 9.06218 227.15 9.33082ZM124.038 9.49147C124.245 9.55893 124.582 9.55893 124.788 9.49147C124.994 9.42425 124.826 9.36916 124.413 9.36916C124.001 9.36916 123.832 9.42425 124.038 9.49147ZM137.81 9.49365C137.665 9.61086 134.85 9.8448 132.669 9.92075C131.51 9.96104 129.752 10.0232 128.763 10.0588L126.963 10.1236L128.463 10.3127C130.677 10.5917 137.278 10.5711 138.661 10.2809C139.321 10.1423 140.017 10.0176 140.208 10.0035C140.398 9.98943 140.483 9.82878 140.397 9.64629C140.294 9.42935 139.833 9.33398 139.066 9.37062C138.421 9.40144 137.856 9.45677 137.81 9.49365ZM182.756 9.55553C181.927 9.71521 181.968 9.7373 183.285 9.83533C184.443 9.92148 186.187 9.72079 185.606 9.56839C185.029 9.41721 183.508 9.41042 182.756 9.55553ZM190.349 9.49656C190.565 9.5667 190.824 9.55796 190.924 9.47739C191.023 9.39683 190.846 9.33956 190.53 9.34999C190.181 9.36164 190.109 9.41915 190.349 9.49656ZM114.589 9.74069C114.878 9.80185 115.351 9.80185 115.639 9.74069C115.928 9.67978 115.692 9.62979 115.114 9.62979C114.537 9.62979 114.301 9.67978 114.589 9.74069ZM166.408 9.81616C166.042 10.0074 166.081 10.052 166.615 10.0552C166.977 10.0571 167.356 9.94963 167.458 9.81616C167.694 9.50724 166.999 9.50724 166.408 9.81616ZM168.77 9.83994C168.493 9.98215 168.727 10.0525 169.483 10.0552C170.101 10.0571 170.607 9.97681 170.607 9.87683C170.607 9.6162 169.26 9.58926 168.77 9.83994ZM192.505 9.69919C192.505 9.89552 193.364 9.98627 193.689 9.82393C193.932 9.70259 193.787 9.63416 193.287 9.63416C192.857 9.63416 192.505 9.66352 192.505 9.69919ZM57.0022 9.98433C57.294 10.046 57.699 10.0418 57.9021 9.97535C58.1051 9.90886 57.8664 9.85863 57.3714 9.86348C56.8765 9.86834 56.7103 9.9227 57.0022 9.98433ZM59.9211 10.104C59.3437 10.2219 57.9476 10.3612 56.8189 10.4131C55.6901 10.4653 54.6979 10.5636 54.6136 10.6318C54.2155 10.9538 57.1111 11.0756 61.3732 10.9159C68.0909 10.6643 70.6628 10.6403 72.3696 10.8128C73.1945 10.8963 73.9141 10.8708 73.9687 10.7563C74.0233 10.6412 74.292 10.6405 74.5686 10.7543C74.8439 10.8677 75.7441 10.8815 76.569 10.7849L78.0688 10.609L76.4191 10.5733C74.5083 10.5318 73.3651 10.3263 73.5682 10.0603C73.6462 9.95812 72.4077 9.85669 70.8158 9.83485C68.7316 9.80646 67.8527 9.88314 67.6754 10.1091C67.4751 10.3646 67.4286 10.3639 67.4247 10.1052C67.422 9.91566 67.2711 9.86203 67.0506 9.97244C66.5554 10.22 65.6204 10.2651 65.6204 10.0414C65.6204 9.79335 61.204 9.84189 59.9211 10.104ZM76.944 9.98749C77.3153 10.0452 77.9225 10.0452 78.2938 9.98749C78.6652 9.92949 78.3613 9.88217 77.6189 9.88217C76.8765 9.88217 76.5726 9.92949 76.944 9.98749ZM153.584 9.98336C153.873 10.0445 154.346 10.0445 154.634 9.98336C154.923 9.92245 154.687 9.87246 154.109 9.87246C153.532 9.87246 153.296 9.92245 153.584 9.98336ZM165.152 9.98191C165.368 10.052 165.627 10.0433 165.727 9.96274C165.826 9.88217 165.649 9.8249 165.333 9.83533C164.984 9.84698 164.913 9.90449 165.152 9.98191ZM16.2015 10.226C16.4904 10.2872 16.9625 10.2872 17.2514 10.226C17.5403 10.1651 17.3039 10.1151 16.7265 10.1151C16.149 10.1151 15.9127 10.1651 16.2015 10.226ZM71.3197 10.3127C71.6481 10.4925 71.527 10.5151 70.8697 10.3961C69.7668 10.1964 69.5274 10.0576 70.2947 10.0625C70.6109 10.0647 71.0722 10.177 71.3197 10.3127ZM114.214 10.3437C114.214 10.6036 119.878 10.5726 120.664 10.3083C121.027 10.186 119.873 10.1137 117.739 10.1248C115.801 10.135 114.214 10.2333 114.214 10.3437ZM126.157 10.2246C126.373 10.2947 126.632 10.286 126.732 10.2054C126.831 10.1248 126.654 10.0676 126.338 10.078C125.989 10.0897 125.917 10.1472 126.157 10.2246ZM31.2747 10.5442C31.1727 10.6776 31.3673 10.7868 31.7069 10.7868C32.0465 10.7868 32.3245 10.6776 32.3245 10.5442C32.3245 10.4107 32.1301 10.3015 31.8923 10.3015C31.6544 10.3015 31.3766 10.4107 31.2747 10.5442ZM35.1898 10.5238C35.1154 10.6211 34.4837 10.6641 33.7859 10.6194C33.0879 10.5748 32.599 10.6044 32.6992 10.6854C33.0192 10.9443 36.9068 11.0916 36.7127 10.8376C36.4763 10.5279 35.3619 10.2984 35.1898 10.5238ZM51.3722 10.5502C50.6517 10.6937 50.8259 10.7352 52.2472 10.7582C53.2232 10.774 53.9656 10.7475 53.8969 10.6997C53.57 10.4716 52.18 10.3894 51.3722 10.5502ZM28.5057 10.7123C28.7976 10.774 29.2025 10.7699 29.4056 10.7034C29.6087 10.6369 29.3699 10.5866 28.875 10.5915C28.38 10.5963 28.2138 10.6507 28.5057 10.7123ZM15.7705 10.9526C15.9868 11.0227 16.2456 11.014 16.3452 10.9334C16.4448 10.8529 16.2678 10.7956 15.9517 10.806C15.6022 10.8177 15.5311 10.8752 15.7705 10.9526ZM37.3489 10.9475C37.5553 11.015 37.8927 11.015 38.0988 10.9475C38.3052 10.8803 38.1363 10.8252 37.7239 10.8252C37.3114 10.8252 37.1428 10.8803 37.3489 10.9475Z" fill="#EB7A11" fill-opacity="0.5"/>
</svg>
